<mxfile host="app.diagrams.net" agent="Mozilla/5.0 (Windows NT 10.0; Win64; x64) AppleWebKit/537.36 (KHTML, like Gecko) Chrome/131.0.0.0 Safari/537.36" version="24.8.6">
  <diagram name="Сторінка-1" id="s57qLDWaNEmjG8DpB6Da">
    <mxGraphModel dx="1313" dy="663" grid="1" gridSize="10" guides="1" tooltips="1" connect="1" arrows="1" fold="1" page="1" pageScale="1" pageWidth="827" pageHeight="1169" math="0" shadow="0">
      <root>
        <mxCell id="0" />
        <mxCell id="1" parent="0" />
        <mxCell id="wv-OZGlbjTZXL0bCP582-1" value="&lt;font style=&quot;font-size: 14px;&quot;&gt;End&lt;/font&gt;" style="ellipse;whiteSpace=wrap;html=1;" vertex="1" parent="1">
          <mxGeometry x="354" y="670" width="120" height="50" as="geometry" />
        </mxCell>
        <mxCell id="wv-OZGlbjTZXL0bCP582-2" style="edgeStyle=orthogonalEdgeStyle;rounded=0;orthogonalLoop=1;jettySize=auto;html=1;exitX=0.5;exitY=1;exitDx=0;exitDy=0;entryX=0.5;entryY=0;entryDx=0;entryDy=0;" edge="1" parent="1" source="wv-OZGlbjTZXL0bCP582-3" target="wv-OZGlbjTZXL0bCP582-5">
          <mxGeometry relative="1" as="geometry">
            <mxPoint x="414" y="130" as="targetPoint" />
          </mxGeometry>
        </mxCell>
        <mxCell id="wv-OZGlbjTZXL0bCP582-3" value="&lt;font style=&quot;font-size: 14px;&quot;&gt;Start&lt;/font&gt;" style="ellipse;whiteSpace=wrap;html=1;" vertex="1" parent="1">
          <mxGeometry x="354" y="40" width="120" height="50" as="geometry" />
        </mxCell>
        <mxCell id="wv-OZGlbjTZXL0bCP582-20" style="edgeStyle=orthogonalEdgeStyle;rounded=0;orthogonalLoop=1;jettySize=auto;html=1;exitX=0.5;exitY=1;exitDx=0;exitDy=0;entryX=0.5;entryY=0;entryDx=0;entryDy=0;" edge="1" parent="1" source="wv-OZGlbjTZXL0bCP582-5" target="wv-OZGlbjTZXL0bCP582-19">
          <mxGeometry relative="1" as="geometry" />
        </mxCell>
        <mxCell id="wv-OZGlbjTZXL0bCP582-5" value="&lt;span style=&quot;font-size: 14px;&quot;&gt;int num,&amp;nbsp;&lt;/span&gt;&lt;div&gt;&lt;span style=&quot;font-size: 14px;&quot;&gt;k=0, sum=0&lt;/span&gt;&lt;/div&gt;&lt;div&gt;&lt;span style=&quot;font-size: 14px;&quot;&gt;double av&lt;/span&gt;&lt;/div&gt;" style="shape=parallelogram;perimeter=parallelogramPerimeter;whiteSpace=wrap;html=1;fixedSize=1;" vertex="1" parent="1">
          <mxGeometry x="347" y="130" width="134" height="60" as="geometry" />
        </mxCell>
        <mxCell id="wv-OZGlbjTZXL0bCP582-22" style="edgeStyle=orthogonalEdgeStyle;rounded=0;orthogonalLoop=1;jettySize=auto;html=1;exitX=0.5;exitY=1;exitDx=0;exitDy=0;entryX=0.5;entryY=0;entryDx=0;entryDy=0;" edge="1" parent="1" source="wv-OZGlbjTZXL0bCP582-19" target="wv-OZGlbjTZXL0bCP582-21">
          <mxGeometry relative="1" as="geometry" />
        </mxCell>
        <mxCell id="wv-OZGlbjTZXL0bCP582-25" value="yes" style="edgeLabel;html=1;align=center;verticalAlign=middle;resizable=0;points=[];" vertex="1" connectable="0" parent="wv-OZGlbjTZXL0bCP582-22">
          <mxGeometry x="-0.2933" y="1" relative="1" as="geometry">
            <mxPoint as="offset" />
          </mxGeometry>
        </mxCell>
        <mxCell id="wv-OZGlbjTZXL0bCP582-30" style="edgeStyle=orthogonalEdgeStyle;rounded=0;orthogonalLoop=1;jettySize=auto;html=1;exitX=0;exitY=0.5;exitDx=0;exitDy=0;entryX=0.5;entryY=0;entryDx=0;entryDy=0;" edge="1" parent="1" source="wv-OZGlbjTZXL0bCP582-19" target="wv-OZGlbjTZXL0bCP582-36">
          <mxGeometry relative="1" as="geometry">
            <mxPoint x="420" y="480" as="targetPoint" />
            <Array as="points">
              <mxPoint x="320" y="270" />
              <mxPoint x="320" y="410" />
              <mxPoint x="420" y="410" />
            </Array>
          </mxGeometry>
        </mxCell>
        <mxCell id="wv-OZGlbjTZXL0bCP582-32" value="No" style="edgeLabel;html=1;align=center;verticalAlign=middle;resizable=0;points=[];" vertex="1" connectable="0" parent="wv-OZGlbjTZXL0bCP582-30">
          <mxGeometry x="-0.9072" relative="1" as="geometry">
            <mxPoint as="offset" />
          </mxGeometry>
        </mxCell>
        <mxCell id="wv-OZGlbjTZXL0bCP582-19" value="&lt;font style=&quot;font-size: 14px;&quot;&gt;true&lt;/font&gt;" style="rhombus;whiteSpace=wrap;html=1;" vertex="1" parent="1">
          <mxGeometry x="374" y="230" width="80" height="80" as="geometry" />
        </mxCell>
        <mxCell id="wv-OZGlbjTZXL0bCP582-24" style="edgeStyle=orthogonalEdgeStyle;rounded=0;orthogonalLoop=1;jettySize=auto;html=1;exitX=1;exitY=0.5;exitDx=0;exitDy=0;entryX=0;entryY=0.5;entryDx=0;entryDy=0;" edge="1" parent="1" source="wv-OZGlbjTZXL0bCP582-21" target="wv-OZGlbjTZXL0bCP582-23">
          <mxGeometry relative="1" as="geometry" />
        </mxCell>
        <mxCell id="wv-OZGlbjTZXL0bCP582-21" value="&lt;font style=&quot;font-size: 14px;&quot;&gt;num&lt;/font&gt;" style="shape=parallelogram;perimeter=parallelogramPerimeter;whiteSpace=wrap;html=1;fixedSize=1;" vertex="1" parent="1">
          <mxGeometry x="359" y="340" width="110" height="55" as="geometry" />
        </mxCell>
        <mxCell id="wv-OZGlbjTZXL0bCP582-27" style="edgeStyle=orthogonalEdgeStyle;rounded=0;orthogonalLoop=1;jettySize=auto;html=1;exitX=0.5;exitY=0;exitDx=0;exitDy=0;entryX=0.5;entryY=1;entryDx=0;entryDy=0;" edge="1" parent="1" source="wv-OZGlbjTZXL0bCP582-23" target="wv-OZGlbjTZXL0bCP582-26">
          <mxGeometry relative="1" as="geometry" />
        </mxCell>
        <mxCell id="wv-OZGlbjTZXL0bCP582-33" value="No" style="edgeLabel;html=1;align=center;verticalAlign=middle;resizable=0;points=[];" vertex="1" connectable="0" parent="wv-OZGlbjTZXL0bCP582-27">
          <mxGeometry x="-0.1125" relative="1" as="geometry">
            <mxPoint y="4" as="offset" />
          </mxGeometry>
        </mxCell>
        <mxCell id="wv-OZGlbjTZXL0bCP582-31" style="edgeStyle=orthogonalEdgeStyle;rounded=0;orthogonalLoop=1;jettySize=auto;html=1;exitX=0.5;exitY=1;exitDx=0;exitDy=0;" edge="1" parent="1" source="wv-OZGlbjTZXL0bCP582-23">
          <mxGeometry relative="1" as="geometry">
            <mxPoint x="420" y="450.0000000000001" as="targetPoint" />
            <Array as="points">
              <mxPoint x="580" y="450" />
            </Array>
          </mxGeometry>
        </mxCell>
        <mxCell id="wv-OZGlbjTZXL0bCP582-34" value="Yes" style="edgeLabel;html=1;align=center;verticalAlign=middle;resizable=0;points=[];" vertex="1" connectable="0" parent="wv-OZGlbjTZXL0bCP582-31">
          <mxGeometry x="-0.8426" relative="1" as="geometry">
            <mxPoint as="offset" />
          </mxGeometry>
        </mxCell>
        <mxCell id="wv-OZGlbjTZXL0bCP582-23" value="&lt;font style=&quot;font-size: 14px;&quot;&gt;num&amp;lt;=0&lt;/font&gt;" style="rhombus;whiteSpace=wrap;html=1;" vertex="1" parent="1">
          <mxGeometry x="540" y="327.5" width="80" height="80" as="geometry" />
        </mxCell>
        <mxCell id="wv-OZGlbjTZXL0bCP582-29" style="edgeStyle=orthogonalEdgeStyle;rounded=0;orthogonalLoop=1;jettySize=auto;html=1;exitX=0.5;exitY=0;exitDx=0;exitDy=0;" edge="1" parent="1" source="wv-OZGlbjTZXL0bCP582-26">
          <mxGeometry relative="1" as="geometry">
            <mxPoint x="410" y="210" as="targetPoint" />
            <Array as="points">
              <mxPoint x="580" y="210" />
            </Array>
          </mxGeometry>
        </mxCell>
        <mxCell id="wv-OZGlbjTZXL0bCP582-26" value="&lt;font style=&quot;font-size: 14px;&quot;&gt;k++&lt;/font&gt;&lt;div style=&quot;font-size: 14px;&quot;&gt;&lt;font style=&quot;font-size: 14px;&quot;&gt;sum+=num&lt;/font&gt;&lt;/div&gt;" style="rounded=1;whiteSpace=wrap;html=1;" vertex="1" parent="1">
          <mxGeometry x="520" y="240" width="120" height="60" as="geometry" />
        </mxCell>
        <mxCell id="wv-OZGlbjTZXL0bCP582-38" style="edgeStyle=orthogonalEdgeStyle;rounded=0;orthogonalLoop=1;jettySize=auto;html=1;exitX=1;exitY=0.5;exitDx=0;exitDy=0;entryX=0;entryY=0.5;entryDx=0;entryDy=0;" edge="1" parent="1" source="wv-OZGlbjTZXL0bCP582-36" target="wv-OZGlbjTZXL0bCP582-37">
          <mxGeometry relative="1" as="geometry" />
        </mxCell>
        <mxCell id="wv-OZGlbjTZXL0bCP582-40" value="Yes" style="edgeLabel;html=1;align=center;verticalAlign=middle;resizable=0;points=[];" vertex="1" connectable="0" parent="wv-OZGlbjTZXL0bCP582-38">
          <mxGeometry x="-0.584" y="2" relative="1" as="geometry">
            <mxPoint as="offset" />
          </mxGeometry>
        </mxCell>
        <mxCell id="wv-OZGlbjTZXL0bCP582-42" style="edgeStyle=orthogonalEdgeStyle;rounded=0;orthogonalLoop=1;jettySize=auto;html=1;exitX=0;exitY=0.5;exitDx=0;exitDy=0;entryX=0.5;entryY=0;entryDx=0;entryDy=0;" edge="1" parent="1" source="wv-OZGlbjTZXL0bCP582-36" target="wv-OZGlbjTZXL0bCP582-41">
          <mxGeometry relative="1" as="geometry" />
        </mxCell>
        <mxCell id="wv-OZGlbjTZXL0bCP582-46" value="No" style="edgeLabel;html=1;align=center;verticalAlign=middle;resizable=0;points=[];" vertex="1" connectable="0" parent="wv-OZGlbjTZXL0bCP582-42">
          <mxGeometry x="-0.5581" relative="1" as="geometry">
            <mxPoint x="-1" as="offset" />
          </mxGeometry>
        </mxCell>
        <mxCell id="wv-OZGlbjTZXL0bCP582-36" value="&lt;font style=&quot;font-size: 14px;&quot;&gt;k==0&lt;/font&gt;" style="rhombus;whiteSpace=wrap;html=1;" vertex="1" parent="1">
          <mxGeometry x="380" y="470" width="80" height="80" as="geometry" />
        </mxCell>
        <mxCell id="wv-OZGlbjTZXL0bCP582-39" style="edgeStyle=orthogonalEdgeStyle;rounded=0;orthogonalLoop=1;jettySize=auto;html=1;exitX=0.5;exitY=1;exitDx=0;exitDy=0;entryX=1;entryY=0.5;entryDx=0;entryDy=0;" edge="1" parent="1" source="wv-OZGlbjTZXL0bCP582-37" target="wv-OZGlbjTZXL0bCP582-1">
          <mxGeometry relative="1" as="geometry" />
        </mxCell>
        <mxCell id="wv-OZGlbjTZXL0bCP582-37" value="&lt;font style=&quot;font-size: 12px;&quot;&gt;Any elements&lt;/font&gt;" style="shape=parallelogram;perimeter=parallelogramPerimeter;whiteSpace=wrap;html=1;fixedSize=1;" vertex="1" parent="1">
          <mxGeometry x="520" y="485" width="100" height="50" as="geometry" />
        </mxCell>
        <mxCell id="wv-OZGlbjTZXL0bCP582-44" style="edgeStyle=orthogonalEdgeStyle;rounded=0;orthogonalLoop=1;jettySize=auto;html=1;exitX=0.5;exitY=1;exitDx=0;exitDy=0;entryX=0.5;entryY=0;entryDx=0;entryDy=0;" edge="1" parent="1" source="wv-OZGlbjTZXL0bCP582-41" target="wv-OZGlbjTZXL0bCP582-43">
          <mxGeometry relative="1" as="geometry" />
        </mxCell>
        <mxCell id="wv-OZGlbjTZXL0bCP582-41" value="calculating av" style="rounded=1;whiteSpace=wrap;html=1;" vertex="1" parent="1">
          <mxGeometry x="190" y="535" width="120" height="60" as="geometry" />
        </mxCell>
        <mxCell id="wv-OZGlbjTZXL0bCP582-45" style="edgeStyle=orthogonalEdgeStyle;rounded=0;orthogonalLoop=1;jettySize=auto;html=1;exitX=0.5;exitY=1;exitDx=0;exitDy=0;entryX=0;entryY=0.5;entryDx=0;entryDy=0;" edge="1" parent="1" source="wv-OZGlbjTZXL0bCP582-43" target="wv-OZGlbjTZXL0bCP582-1">
          <mxGeometry relative="1" as="geometry">
            <Array as="points">
              <mxPoint x="250" y="695" />
            </Array>
          </mxGeometry>
        </mxCell>
        <mxCell id="wv-OZGlbjTZXL0bCP582-43" value="sum, av" style="shape=parallelogram;perimeter=parallelogramPerimeter;whiteSpace=wrap;html=1;fixedSize=1;" vertex="1" parent="1">
          <mxGeometry x="190" y="620" width="120" height="60" as="geometry" />
        </mxCell>
      </root>
    </mxGraphModel>
  </diagram>
</mxfile>
